<svg id="Layer_1" data-name="Layer 1" xmlns="http://www.w3.org/2000/svg" viewBox="0 0 512 512"><defs><style>.cls-1{fill:#94d5d7;}.cls-2{fill:#fff;}</style></defs><title>logo</title><rect class="cls-1" width="512" height="512"/><path class="cls-2" d="M230.42,311.39a47.34,47.34,0,0,0-10.5-11.85,48.42,48.42,0,0,0-14.25-8A49,49,0,0,0,189,288.74q-15.9,0-27,6.15a51,51,0,0,0-18,16.5A72.3,72.3,0,0,0,134,334.94a117.21,117.21,0,0,0-3.15,27.3A109,109,0,0,0,134,388.49,70.94,70.94,0,0,0,144,411.44a51.51,51.51,0,0,0,18,16.35q11.1,6.15,27,6.15,21.6,0,33.75-13.2t14.85-34.8h45.6a108.89,108.89,0,0,1-9.3,36.3,86.94,86.94,0,0,1-19.8,27.6,84.16,84.16,0,0,1-28.8,17.4,105.52,105.52,0,0,1-36.3,6q-24.6,0-44.25-8.55a94.82,94.82,0,0,1-33.15-23.55,104.25,104.25,0,0,1-20.7-35.25,129.37,129.37,0,0,1-7.2-43.65,133.84,133.84,0,0,1,7.2-44.55,107,107,0,0,1,20.7-35.85,94.65,94.65,0,0,1,33.15-24q19.65-8.7,44.25-8.7a107.92,107.92,0,0,1,33.45,5.1,90.55,90.55,0,0,1,28.2,14.85,80.25,80.25,0,0,1,20.55,24.15,86.33,86.33,0,0,1,10.2,33h-45.6A38.46,38.46,0,0,0,230.42,311.39Z"/><path class="cls-2" d="M398.12,254.24a133.4,133.4,0,0,1,27.9,2.7,60.24,60.24,0,0,1,21.6,8.85,41.16,41.16,0,0,1,13.95,16.35q4.95,10.2,4.95,25.2,0,16.2-7.35,27T437.42,352q19.8,5.7,29.55,19.95t9.75,34.35q0,16.2-6.3,28.05a54.66,54.66,0,0,1-16.95,19.35,75,75,0,0,1-24.3,11.1,109.53,109.53,0,0,1-28.05,3.6H297.32V254.24Zm-6,86.7q12.6,0,20.7-6t8.1-19.5q0-7.5-2.7-12.3a20,20,0,0,0-7.2-7.5,30.35,30.35,0,0,0-10.35-3.75,68.67,68.67,0,0,0-12.15-1.05h-44.1v50.1Zm2.7,90.9a62.86,62.86,0,0,0,13.2-1.35,32.39,32.39,0,0,0,11.1-4.5,22.65,22.65,0,0,0,7.65-8.55q2.85-5.4,2.85-13.8,0-16.5-9.3-23.55t-24.6-7h-51.3v58.8Z"/></svg>